<?xml version="1.0" encoding="UTF-8" standalone="no"?>
<!DOCTYPE svg PUBLIC "-//W3C//DTD SVG 1.1//EN" "http://www.w3.org/Graphics/SVG/1.1/DTD/svg11.dtd">
<svg width="100%" height="100%" viewBox="0 0 1068 314" version="1.1" xmlns="http://www.w3.org/2000/svg" xmlns:xlink="http://www.w3.org/1999/xlink" xml:space="preserve" xmlns:serif="http://www.serif.com/" style="fill-rule:evenodd;clip-rule:evenodd;stroke-linejoin:round;stroke-miterlimit:2;">
    <g transform="matrix(1.220578,0,0,1.220578,-108.210331,-107.865921)">
        <path d="M886.576,263.152C888.63,263.152 891.368,262.81 894.792,262.125C898.301,261.441 901.553,260.285 904.549,258.659C908.657,256.434 911.139,254.465 911.995,252.754C912.85,251.042 913.278,247.832 913.278,243.125L913.278,188.949C913.278,182.188 912.251,176.925 910.197,173.159C906.346,166.312 899.071,162.889 888.373,162.889C876.22,162.889 867.233,167.938 861.413,178.037C855.679,188.051 852.812,199.519 852.812,212.443C852.812,227.591 855.722,239.83 861.542,249.159C867.447,258.488 875.792,263.152 886.576,263.152ZM889.528,155.828C895.348,155.828 900.483,156.641 904.934,158.267C907.929,159.294 912.465,161.519 918.542,164.943L932.792,156.47C933.562,156.127 934.161,155.913 934.589,155.828C935.017,156.17 935.274,156.427 935.359,156.598C935.445,156.769 935.488,157.326 935.488,158.267L935.488,314.375C935.488,318.911 936.301,322.292 937.927,324.517C940.409,327.855 945.202,329.866 952.305,330.551L952.305,334.146L890.17,334.146L890.17,329.909C897.787,329.824 903.436,328.54 907.116,326.058C910.882,323.576 912.765,318.056 912.765,309.497L912.765,260.585C906.774,266.49 901.596,270.727 897.231,273.294C890.042,277.488 881.954,279.585 872.967,279.585C862.269,279.585 852.47,274.664 843.569,264.821C834.668,254.893 830.217,240.344 830.217,221.173C830.217,203.542 835.695,188.265 846.65,175.341C857.69,162.332 871.983,155.828 889.528,155.828Z" style="fill:white;fill-rule:nonzero;"/>
        <path d="M697.217,273.294C703.294,272.524 707.53,271.026 709.927,268.801C712.409,266.49 713.65,261.398 713.65,253.524L713.65,188.436C713.65,182.959 713.136,179.107 712.109,176.882C710.483,173.63 707.145,172.004 702.096,172.004C701.325,172.004 700.512,172.046 699.656,172.132C698.886,172.218 697.902,172.346 696.704,172.517L696.704,168.024C700.213,166.997 708.514,164.344 721.609,160.064L733.677,156.085C734.276,156.085 734.618,156.299 734.704,156.727C734.875,157.154 734.96,157.754 734.96,158.524L734.96,177.395C742.834,170.035 748.997,164.986 753.447,162.247C760.123,158.053 767.055,155.956 774.244,155.956C780.064,155.956 785.37,157.625 790.163,160.963C799.406,167.468 804.028,179.064 804.028,195.754L804.028,255.706C804.028,261.869 805.269,266.319 807.751,269.058C810.233,271.797 814.384,273.209 820.204,273.294L820.204,276.889L765.386,276.889L765.386,273.294C771.634,272.438 775.999,270.727 778.481,268.159C780.963,265.506 782.204,259.815 782.204,251.085L782.204,196.267C782.204,188.907 780.834,182.83 778.096,178.037C775.357,173.159 770.307,170.72 762.947,170.72C757.897,170.72 752.762,172.431 747.542,175.855C744.632,177.823 740.866,181.076 736.244,185.612L736.244,257.504C736.244,263.666 737.614,267.817 740.352,269.956C743.091,272.01 747.413,273.123 753.319,273.294L753.319,276.889L697.217,276.889L697.217,273.294Z" style="fill:white;fill-rule:nonzero;"/>
        <path d="M651.001,205.767C641.159,209.019 633.028,212.614 626.609,216.551C614.285,224.168 608.123,232.812 608.123,242.483C608.123,250.272 610.69,256.006 615.825,259.686C619.163,262.083 622.886,263.281 626.994,263.281C632.643,263.281 638.035,261.697 643.17,258.531C648.391,255.364 651.001,251.342 651.001,246.463L651.001,205.767ZM585.271,251.342C585.271,238.932 591.476,228.576 603.886,220.274C611.76,215.139 627.465,208.164 651.001,199.348L651.001,188.436C651.001,179.706 650.145,173.63 648.434,170.206C645.524,164.472 639.49,161.605 630.332,161.605C625.967,161.605 621.816,162.718 617.879,164.943C613.943,167.254 611.974,170.42 611.974,174.443C611.974,175.47 612.188,177.224 612.616,179.706C613.044,182.103 613.258,183.643 613.258,184.328C613.258,189.121 611.674,192.459 608.508,194.341C606.711,195.454 604.571,196.01 602.089,196.01C598.238,196.01 595.285,194.769 593.231,192.287C591.177,189.72 590.15,186.895 590.15,183.814C590.15,177.823 593.83,171.576 601.19,165.071C608.636,158.481 619.506,155.186 633.798,155.186C650.402,155.186 661.657,160.578 667.562,171.362C670.729,177.267 672.312,185.868 672.312,197.166L672.312,248.646C672.312,253.61 672.654,257.033 673.339,258.916C674.452,262.254 676.762,263.923 680.271,263.923C682.24,263.923 683.866,263.623 685.15,263.024C686.434,262.425 688.659,260.97 691.826,258.659L691.826,265.335C689.087,268.673 686.134,271.411 682.967,273.551C678.175,276.803 673.296,278.429 668.332,278.429C662.512,278.429 658.276,276.547 655.623,272.781C653.055,269.015 651.643,264.522 651.386,259.301C644.882,264.95 639.319,269.143 634.697,271.882C626.909,276.504 619.506,278.815 612.488,278.815C605.127,278.815 598.751,276.247 593.359,271.112C587.967,265.891 585.271,259.301 585.271,251.342Z" style="fill:white;fill-rule:nonzero;"/>
        <path d="M478.46,267.389C491.897,267.389 503.152,264.778 512.224,259.558C521.296,254.337 525.832,244.323 525.832,229.517C525.832,214.796 520.526,204.74 509.913,199.348C499.3,193.956 485.778,191.26 469.345,191.26L461.643,191.26C460.616,191.26 458.99,191.217 456.764,191.132L456.764,256.605C456.764,261.141 458.048,264.094 460.616,265.463C463.183,266.747 469.131,267.389 478.46,267.389ZM404.771,272.139C415.384,271.54 422.23,269.913 425.312,267.26C428.478,264.522 430.062,258.231 430.062,248.389L430.062,131.436C430.062,121.765 428.478,115.56 425.312,112.821C422.23,109.997 415.384,108.328 404.771,107.814L404.771,102.936L478.46,102.936C499.514,102.936 516.204,106.316 528.528,113.078C540.938,119.839 547.143,131.479 547.143,147.997C547.143,160.407 542.821,169.821 534.177,176.24C529.298,179.92 521.981,182.958 512.224,185.355C524.291,188.265 534.605,193.143 543.163,199.99C551.722,206.751 556.001,216.251 556.001,228.49C556.001,249.031 546.501,263.152 527.501,270.855C517.487,274.877 505.163,276.889 490.528,276.889L404.771,276.889L404.771,272.139ZM481.798,180.733C490.613,180.562 497.931,179.15 503.751,176.497C514.877,171.362 520.44,162.161 520.44,148.895C520.44,133.233 514.021,122.663 501.183,117.186C494.08,114.19 483.296,112.693 468.832,112.693C463.354,112.693 459.974,113.163 458.69,114.105C457.406,115.046 456.764,117.614 456.764,121.807L456.764,181.118L481.798,180.733Z" style="fill:white;fill-rule:nonzero;"/>
        <path d="M275.494,217.321C275.494,200.29 280.886,185.911 291.67,174.186C302.539,162.375 316.489,156.47 333.521,156.47C350.467,156.47 364.503,162.033 375.629,173.159C386.755,184.285 392.318,199.091 392.318,217.578C392.318,234.609 386.927,249.416 376.143,261.997C365.359,274.578 351.408,280.869 334.291,280.869C317.859,280.869 303.951,274.835 292.568,262.767C281.185,250.7 275.494,235.551 275.494,217.321ZM329.926,164.172C323.165,164.172 317.303,166.398 312.339,170.848C303.78,178.636 299.501,192.073 299.501,211.159C299.501,226.393 302.924,240.6 309.771,253.781C316.703,266.961 326.289,273.551 338.528,273.551C348.113,273.551 355.474,269.143 360.609,260.328C365.83,251.513 368.44,239.959 368.44,225.666C368.44,210.859 365.145,196.909 358.555,183.814C351.965,170.72 342.422,164.172 329.926,164.172Z" style="fill:white;fill-rule:nonzero;"/>
        <path d="M190.764,99.855C200.264,99.855 210.02,101.267 220.034,104.091C230.048,106.915 235.653,108.328 236.852,108.328C239.334,108.328 241.687,107.643 243.912,106.274C246.138,104.904 247.678,102.765 248.534,99.855L254.054,99.855L256.493,158.909L250.46,158.909C246.951,147.184 242.372,137.726 236.723,130.537C225.939,117.015 211.433,110.253 193.203,110.253C174.802,110.253 159.739,117.528 148.014,132.078C136.374,146.627 130.554,166.654 130.554,192.159C130.554,215.609 136.673,234.353 148.912,248.389C161.237,262.339 176.813,269.314 195.642,269.314C209.25,269.314 221.788,266.062 233.257,259.558C239.847,255.877 247.079,250.314 254.953,242.868L259.831,247.747C254.012,255.107 246.78,261.569 238.135,267.132C223.415,276.546 207.453,281.254 190.25,281.254C162.007,281.254 139.583,272.224 122.98,254.166C107.66,237.477 100,216.636 100,191.645C100,166.055 108.088,144.573 124.264,127.199C141.295,108.97 163.462,99.855 190.764,99.855Z" style="fill:white;fill-rule:nonzero;"/>
    </g>
</svg>
